<svg width="30" height="30" viewBox="0 0 30 30" fill="none" xmlns="http://www.w3.org/2000/svg">
<path d="M13.7129 2.5H11.2129C4.96289 2.5 2.46289 5 2.46289 11.25V18.75C2.46289 25 4.96289 27.5 11.2129 27.5H18.7129C24.9629 27.5 27.4629 25 27.4629 18.75V16.25" stroke="#595964" stroke-width="2" stroke-linecap="round" stroke-linejoin="round"/>
<path d="M27.3498 4.45028C25.8123 8.28778 21.9498 13.5128 18.7248 16.1003L16.7498 17.6753C16.4998 17.8628 16.2498 18.0128 15.9623 18.1253C15.9623 17.9378 15.9498 17.7503 15.9248 17.5503C15.8123 16.7128 15.4373 15.9253 14.7623 15.2628C14.0748 14.5753 13.2498 14.1878 12.3998 14.0753C12.1998 14.0628 11.9998 14.0503 11.7998 14.0628C11.9123 13.7503 12.0748 13.4628 12.2873 13.2253L13.8623 11.2503C16.4498 8.02528 21.6873 4.13778 25.5123 2.60028C26.0998 2.37528 26.6748 2.55028 27.0373 2.91278C27.4123 3.28778 27.5873 3.86278 27.3498 4.45028Z" stroke="#595964" stroke-width="2" stroke-linecap="round" stroke-linejoin="round"/>
<path d="M19.7752 14.9748C19.7752 12.3623 17.6627 10.2373 15.0377 10.2373M15.9752 18.1123C15.9752 19.2123 15.5502 20.2623 14.7627 21.0623C14.1502 21.6748 13.3252 22.0998 12.3377 22.2248L9.87517 22.4873C9.55884 22.5211 9.23896 22.4834 8.93913 22.3771C8.63929 22.2708 8.36716 22.0985 8.14281 21.8729C7.91846 21.6474 7.74761 21.3743 7.64288 21.0739C7.53814 20.7735 7.50219 20.4535 7.53767 20.1373L7.80017 17.6748C8.03767 15.4873 9.86267 14.0873 11.8127 14.0498C12.0127 14.0373 12.2127 14.0498 12.4127 14.0623C13.2627 14.1748 14.0877 14.5623 14.7752 15.2498C15.4502 15.9248 15.8252 16.6998 15.9377 17.5373C15.9627 17.7373 15.9752 17.9373 15.9752 18.1123Z" stroke="#595964" stroke-width="2" stroke-linecap="round" stroke-linejoin="round"/>
</svg>
