<svg width="24" height="24" viewBox="0 0 24 24" fill="none" xmlns="http://www.w3.org/2000/svg">
<path d="M9.14092 21.5854C7.46537 21.0866 5.97392 20.1604 4.79296 18.9333C5.23352 18.4111 5.49902 17.7365 5.49902 16.9998C5.49902 15.343 4.15588 13.9998 2.49902 13.9998C2.3988 13.9998 2.29972 14.0048 2.20202 14.0144C2.06892 13.3636 1.99902 12.6899 1.99902 11.9998C1.99902 10.9545 2.15941 9.94666 2.45692 8.99951C2.47093 8.99971 2.48496 8.99981 2.49902 8.99981C4.15588 8.99981 5.49902 7.65666 5.49902 5.99981C5.49902 5.52416 5.38832 5.07441 5.19132 4.67481C6.34777 3.59951 7.75927 2.79477 9.32507 2.36133C9.82122 3.33385 10.8324 3.99982 11.999 3.99982C13.1657 3.99982 14.1768 3.33385 14.673 2.36133C16.2388 2.79477 17.6503 3.59951 18.8067 4.67481C18.6097 5.07441 18.499 5.52416 18.499 5.99981C18.499 7.65666 19.8422 8.99981 21.499 8.99981C21.5131 8.99981 21.5271 8.99971 21.5411 8.99951C21.8386 9.94666 21.999 10.9545 21.999 11.9998C21.999 12.6899 21.9291 13.3636 21.796 14.0144C21.6983 14.0048 21.5993 13.9998 21.499 13.9998C19.8422 13.9998 18.499 15.343 18.499 16.9998C18.499 17.7365 18.7645 18.4111 19.2051 18.9333C18.0241 20.1604 16.5327 21.0866 14.8571 21.5854C14.4704 20.3758 13.337 19.4998 11.999 19.4998C10.661 19.4998 9.52762 20.3758 9.14092 21.5854Z" stroke="#595964" stroke-width="1.86068" stroke-linejoin="round"/>
<path d="M12.001 15.499C13.934 15.499 15.501 13.932 15.501 11.999C15.501 10.066 13.934 8.49902 12.001 8.49902C10.068 8.49902 8.50098 10.066 8.50098 11.999C8.50098 13.932 10.068 15.499 12.001 15.499Z" stroke="#595964" stroke-width="1.86068" stroke-linejoin="round"/>
</svg>
