<svg width="20" height="20" viewBox="0 0 20 20" fill="none" xmlns="http://www.w3.org/2000/svg">
<path d="M14.7689 8.65959V11.8697C14.7689 12.0784 14.7609 12.279 14.7368 12.4716C14.5522 14.6385 13.2762 15.7139 10.9247 15.7139H10.6037C10.4031 15.7139 10.2105 15.8102 10.0901 15.9707L9.12706 17.2548C8.70171 17.8246 8.01153 17.8246 7.58618 17.2548L6.62314 15.9707C6.5589 15.8959 6.48039 15.8347 6.39219 15.7906C6.304 15.7465 6.2079 15.7204 6.10951 15.7139H5.7885C3.2284 15.7139 1.94434 15.0799 1.94434 11.8697V8.65959C1.94434 6.30815 3.02776 5.03212 5.18659 4.84753C5.3792 4.82346 5.57984 4.81543 5.7885 4.81543H10.9247C13.4848 4.81543 14.7689 6.09949 14.7689 8.65959Z" stroke="black" stroke-width="1.48033" stroke-miterlimit="10" stroke-linecap="round" stroke-linejoin="round"/>
<path d="M17.979 5.45061V8.66076C17.979 11.0202 16.8956 12.2882 14.7367 12.4728C14.7608 12.2802 14.7688 12.0796 14.7688 11.8709V8.66076C14.7688 6.10066 13.4848 4.8166 10.9247 4.8166H5.78843C5.57977 4.8166 5.37913 4.82463 5.18652 4.8487C5.37111 2.68987 6.64714 1.60645 8.99858 1.60645H14.1348C16.6949 1.60645 17.979 2.89051 17.979 5.45061Z" stroke="black" stroke-width="1.48033" stroke-miterlimit="10" stroke-linecap="round" stroke-linejoin="round"/>
<path d="M11.1705 10.6348H11.1785M8.36162 10.6348H8.36965M5.55273 10.6348H5.56076" stroke="black" stroke-width="1.48033" stroke-linecap="round" stroke-linejoin="round"/>
</svg>
