<svg width="19" height="19" viewBox="0 0 19 19" fill="none" xmlns="http://www.w3.org/2000/svg">
<path d="M17.5838 17.6568L15.1521 15.2251M13.8761 3.32346L13.8199 6.36509C13.8118 6.78241 14.0767 7.33616 14.4137 7.58494L16.404 9.09372C17.6801 10.0568 17.4714 11.2365 15.9466 11.718L13.3544 12.5286C12.921 12.665 12.4636 13.1385 12.3512 13.5799L11.7333 15.9394C11.2437 17.8013 10.0239 17.9858 9.01266 16.3487L7.6002 14.0614C7.34338 13.6441 6.73346 13.3311 6.25193 13.3552L3.57145 13.4916C1.65338 13.5879 1.10766 12.4804 2.35962 11.0198L3.94865 9.17397C4.24559 8.82888 4.38202 8.18685 4.24559 7.75348L3.43502 5.16128C2.96152 3.63645 3.81221 2.79379 5.32901 3.29136L7.6965 4.06983C8.09777 4.19823 8.69968 4.10995 9.03674 3.86116L11.5086 2.07953C12.8408 1.11648 13.9082 1.67826 13.8761 3.32346Z" stroke="#202024" stroke-width="1.48033" stroke-linecap="round" stroke-linejoin="round"/>
</svg>
